<svg width="20" height="20" viewBox="0 0 17 17" fill="none" xmlns="http://www.w3.org/2000/svg">
  <path fill-rule="evenodd" clip-rule="evenodd"
    d="M4.24225 1.41424C3.46122 0.633162 2.19493 0.633162 1.4139 1.41424C0.632868 2.1953 0.632868 3.46167 1.4139 4.24273L5.78529 8.61436L1.41413 12.9858C0.633097 13.7668 0.633097 15.0332 1.41413 15.8143C2.19515 16.5953 3.46145 16.5953 4.24247 15.8143L8.61364 11.4429L12.9848 15.8142C13.7658 16.5953 15.0321 16.5953 15.8131 15.8142C16.5941 15.0331 16.5941 13.7668 15.8131 12.9857L11.442 8.61436L15.8133 4.24278C16.5944 3.46171 16.5944 2.19535 15.8133 1.41428C15.0323 0.633207 13.766 0.633207 12.985 1.41428L8.61364 5.78586L4.24225 1.41424Z"
    fill="#fff" />
</svg>