<svg width="100" height="100" viewBox="0 0 100 100" fill="none" xmlns="http://www.w3.org/2000/svg">
  <rect width="100" height="100" rx="15" fill="#000" />
  <path fill-rule="evenodd" clip-rule="evenodd"
    d="M50.2899 22.6671C34.3006 22.6671 21.3335 35.6324 21.3335 51.6271C21.3335 64.4218 29.6304 75.2751 41.1379 79.1044C42.5868 79.3711 43.1148 78.4769 43.1148 77.7089C43.1148 77.0209 43.0899 75.2004 43.0757 72.7844C35.0206 74.5338 33.3211 68.9018 33.3211 68.9018C32.0037 65.556 30.1051 64.6653 30.1051 64.6653C27.4757 62.8698 30.3042 62.9053 30.3042 62.9053C33.2108 63.1098 34.7397 65.8902 34.7397 65.8902C37.3228 70.3151 41.5184 69.0369 43.1682 68.2955C43.4313 66.4253 44.1797 65.1489 45.0064 64.4253C38.5762 63.6947 31.8153 61.2093 31.8153 50.1125C31.8153 46.9516 32.9442 44.3649 34.7966 42.3418C34.498 41.6093 33.5042 38.6636 35.0811 34.6778C35.0811 34.6778 37.5113 33.8991 43.0437 37.6467C45.3531 37.0031 47.8313 36.6831 50.2935 36.6707C52.7539 36.6831 55.2304 37.0031 57.5433 37.6467C63.0722 33.8991 65.4988 34.6778 65.4988 34.6778C67.0793 38.6636 66.0855 41.6093 65.7886 42.3418C67.6446 44.3649 68.7646 46.9516 68.7646 50.1125C68.7646 61.2378 61.9931 63.6858 55.5433 64.4022C56.5815 65.2965 57.5077 67.0635 57.5077 69.764C57.5077 73.636 57.4722 76.7596 57.4722 77.7089C57.4722 78.484 57.9948 79.3853 59.4633 79.1027C70.962 75.2644 79.2517 64.4182 79.2517 51.6271C79.2517 35.6324 66.2846 22.6671 50.2899 22.6671Z"
    fill="white" />
</svg>