<svg width="118" height="100" viewBox="0 0 118 100" fill="none" xmlns="http://www.w3.org/2000/svg">
  <path
    d="M110.709 79.9965H109.547V77.6447H111.018C111.782 77.6447 112.648 77.7697 112.648 78.7653C112.648 79.9043 111.775 79.9965 110.709 79.9965V79.9965ZM111.864 80.6966C113.038 80.5528 113.654 79.9043 113.654 78.8193C113.654 77.4955 112.849 76.8528 111.199 76.8528H108.552V83.8162H109.547V80.7832H110.779L110.803 80.8213L112.718 83.8162H113.782L111.731 80.7154L111.864 80.6966"
    fill="#231F20" />
  <path
    d="M110.823 86.0678C107.671 86.0678 105.197 83.5774 105.197 80.344C105.197 77.113 107.671 74.6204 110.823 74.6204C113.978 74.6204 116.446 77.113 116.446 80.344C116.446 83.5774 113.978 86.0678 110.823 86.0678ZM110.823 73.7575C107.125 73.7575 104.229 76.6493 104.229 80.344C104.229 84.0413 107.125 86.9302 110.823 86.9302C114.515 86.9302 117.412 84.0413 117.412 80.344C117.412 76.6493 114.515 73.7575 110.823 73.7575Z"
    fill="#231F20" />
  <path
    d="M92.5991 3.78117e-06H7.37565C3.30676 3.78117e-06 0 3.22801 0 7.21032V92.7843C0 96.7664 3.30676 100 7.37565 100H92.5991C96.6763 100 99.9966 96.7664 99.9966 92.7843V7.21032C99.9966 3.22801 96.6763 3.78117e-06 92.5991 3.78117e-06Z"
    fill="black" />
  <path
    d="M22.2447 13.7667C26.9892 13.7667 30.841 17.62 30.841 22.3672C30.841 27.1158 26.9892 30.9692 22.2447 30.9692C17.4812 30.9692 13.6401 27.1158 13.6401 22.3672C13.6401 17.62 17.4812 13.7667 22.2447 13.7667ZM14.8174 37.4891H29.6638V85.2104H14.8174V37.4891Z"
    fill="#F0F3F8" />
  <path
    d="M38.9673 37.4891H53.1844V44.0129H53.3876C55.3652 40.2613 60.2045 36.3048 67.4204 36.3048C82.4375 36.3048 85.2127 46.1859 85.2127 59.0385V85.2104H70.3826V62.0036C70.3826 56.4697 70.2875 49.3502 62.676 49.3502C54.9586 49.3502 53.7809 55.3819 53.7809 61.6075V85.2104H38.9673V37.4891"
    fill="#F0F3F8" />
</svg>