<svg width="100" height="100" viewBox="0 0 100 100" fill="none" xmlns="http://www.w3.org/2000/svg">
  <rect width="100" height="100" rx="15" fill="#000" />
  <rect x="20" y="25" width="60" height="50" rx="6" fill="#F0F3F8" />
  <path
    d="M20 31.5889C20 28.2234 22.7283 25.4951 26.0937 25.4951V75.0001C22.7283 75.0001 20 72.2718 20 68.9063V31.5889Z"
    fill="#CACACA" />
  <path
    d="M73.7891 25.4951C77.2193 25.4951 80 28.2758 80 31.706V68.7891C80 72.2193 77.2193 75.0001 73.7891 75.0001V25.4951Z"
    fill="#CACACA" />
  <path d="M26.1279 25L53.6654 42.5527L50.0303 50.1229L22.4928 32.5702L26.1279 25Z" fill="#CACACA" />
  <path d="M73.9355 25L46.398 42.5527L50.0332 50.1229L77.5707 32.5702L73.9355 25Z" fill="#CACACA" />
  <path d="M20 31.1655C20 27.7604 22.7604 25 26.1655 25V32.8053H20V31.1655Z" fill="#CACACA" />
  <path d="M73.834 25C77.2391 25 79.9995 27.7604 79.9995 31.1655V32.8053H73.834V25Z" fill="#CACACA" />
</svg>